<svg width="369" height="151" viewBox="0 0 369 151" fill="none" xmlns="http://www.w3.org/2000/svg">
    <path d="M363 119.156V94.199C363 65.794 340.359 61.74 329.479 59.793C327.797 59.492 326.344 59.231 325.213 58.949C314.223 56.201 309.742 54.57 306.455 48.331L291.684 18.388L291.629 18.281C286.35 8.2 272.879 0 261.6 0H208C199.508 0 192.6 6.908 192.6 15.399V74.862C191.442 76.336 189.616 77.199 187.6 77.199H144.45L140.201 78.199L136.888 77.199H127.606L122.388 78.199L119.763 77.199H110.513L103.949 78.199L102.699 77.199H0V87.199H92.763L98.013 86.199L100.7 87.199H109.763L113.701 86.199L117.575 87.199H126.732L130.014 86.199L134.701 87.199H187.6C193.18 87.199 198.248 84.505 201.233 79.97C202.6 78.21 202.6 76.156 202.6 74.999V15.399C202.6 12.745 204.62 10 208 10H261.6C269.254 10 279.118 16.008 282.745 22.87L297.516 52.812L297.571 52.919C303.253 63.766 312.305 66.029 322.788 68.649C324.247 69.014 325.933 69.316 327.718 69.635C341.549 72.112 353 75.67 353 94.199V128.599H359V132.599H352.398V142.599H360C364.963 142.599 369 138.562 369 133.599V127.599C369 123.845 366.42 120.452 363 119.156Z"
          fill="#333230"/>
    <path d="M276.328 34.939C271.316 25.418 258.287 17.399 247.762 17.399H225.211C222.705 17.399 220.199 19.404 220.199 22.411V60.498V67.515H284.345C288.355 67.515 290.861 63.505 288.857 60.999L276.328 34.939Z"
          fill="#333230"/>
    <path d="M102.652 77.199H110.791L100.791 87.199H92.652L102.652 77.199ZM127.805 77.199H119.668L109.668 87.199H117.805L127.805 77.199ZM144.82 77.199H136.681L126.681 87.199H134.82L144.82 77.199Z"
          fill="white"/>
    <path d="M318 137.89C318 145.02 310.297 150.792 300.779 150.792C291.263 150.792 133 137.89 133 137.89C133 137.89 291.263 125 300.779 125C310.297 124.989 318 130.761 318 137.89Z"
          fill="#404040"/>
    <path d="M24.6875 111.969C24.6875 112.896 24.5729 113.724 24.3438 114.453C24.1146 115.182 23.8021 115.828 23.4062 116.391C23.0208 116.943 22.5729 117.417 22.0625 117.812C21.5521 118.208 21.0156 118.531 20.4531 118.781C19.901 119.031 19.3385 119.214 18.7656 119.328C18.2031 119.443 17.6719 119.5 17.1719 119.5H7.98438V115.438H17.1719C17.6927 115.396 18.1615 115.292 18.5781 115.125C19.0052 114.948 19.3698 114.714 19.6719 114.422C19.974 114.13 20.2083 113.781 20.375 113.375C20.5417 112.958 20.625 112.49 20.625 111.969V110.125C20.5729 109.615 20.4635 109.146 20.2969 108.719C20.1302 108.292 19.901 107.927 19.6094 107.625C19.3281 107.323 18.9844 107.089 18.5781 106.922C18.1719 106.745 17.7031 106.656 17.1719 106.656H8.01562C7.47396 106.656 7.0625 106.797 6.78125 107.078C6.5 107.359 6.35938 107.766 6.35938 108.297V125H2.29688V108.297C2.29688 107.255 2.48438 106.37 2.85938 105.641C3.24479 104.911 3.71875 104.323 4.28125 103.875C4.85417 103.427 5.47396 103.104 6.14062 102.906C6.80729 102.698 7.42188 102.594 7.98438 102.594H17.1719C18.0885 102.594 18.9115 102.714 19.6406 102.953C20.3698 103.182 21.0104 103.495 21.5625 103.891C22.125 104.276 22.599 104.724 22.9844 105.234C23.3802 105.745 23.7031 106.281 23.9531 106.844C24.2135 107.396 24.401 107.958 24.5156 108.531C24.6302 109.094 24.6875 109.625 24.6875 110.125V111.969ZM32.2656 111.75H46.5312V102.594H50.5938V125H46.5312V115.844H32.2656V125H28.2031V102.594H32.2656V111.75ZM77.3125 122.953C77.3125 123.245 77.2604 123.516 77.1562 123.766C77.0521 124.016 76.9062 124.234 76.7188 124.422C76.5312 124.599 76.3125 124.74 76.0625 124.844C75.8125 124.948 75.5469 125 75.2656 125H66.1094C65.2448 125 64.3698 124.906 63.4844 124.719C62.599 124.531 61.7396 124.245 60.9062 123.859C60.0833 123.464 59.3073 122.964 58.5781 122.359C57.849 121.755 57.2083 121.042 56.6562 120.219C56.1146 119.385 55.6875 118.438 55.375 117.375C55.0625 116.302 54.9062 115.109 54.9062 113.797V102.594H58.9688V113.797C58.9688 114.943 59.125 115.911 59.4375 116.703C59.7604 117.495 60.1667 118.156 60.6562 118.688C61.1458 119.219 61.6823 119.635 62.2656 119.938C62.849 120.24 63.401 120.464 63.9219 120.609C64.4531 120.755 64.9167 120.849 65.3125 120.891C65.7188 120.922 65.9844 120.938 66.1094 120.938H73.25V102.594H77.3125V122.953ZM96.5469 125H92.4844V102.594H96.5469V125ZM123.406 122.953C123.406 123.245 123.354 123.516 123.25 123.766C123.146 124.016 123 124.234 122.812 124.422C122.635 124.599 122.422 124.74 122.172 124.844C121.922 124.948 121.651 125 121.359 125H106.703C106.328 125 105.922 124.958 105.484 124.875C105.057 124.781 104.63 124.641 104.203 124.453C103.786 124.266 103.385 124.026 103 123.734C102.615 123.432 102.271 123.073 101.969 122.656C101.677 122.229 101.443 121.74 101.266 121.188C101.089 120.625 101 119.995 101 119.297V108.297C101 107.922 101.042 107.521 101.125 107.094C101.219 106.656 101.359 106.229 101.547 105.812C101.734 105.385 101.979 104.979 102.281 104.594C102.583 104.208 102.943 103.87 103.359 103.578C103.786 103.276 104.276 103.036 104.828 102.859C105.38 102.682 106.005 102.594 106.703 102.594H123.219V106.656H106.703C106.172 106.656 105.766 106.797 105.484 107.078C105.203 107.359 105.062 107.776 105.062 108.328V119.297C105.062 119.818 105.203 120.224 105.484 120.516C105.776 120.797 106.182 120.938 106.703 120.938H119.344V115.844H108.531V111.75H121.359C121.651 111.75 121.922 111.807 122.172 111.922C122.422 112.026 122.635 112.172 122.812 112.359C123 112.547 123.146 112.766 123.25 113.016C123.354 113.255 123.406 113.516 123.406 113.797V122.953ZM151.156 115.938C151.156 117.302 150.922 118.557 150.453 119.703C149.984 120.849 149.333 121.839 148.5 122.672C147.667 123.505 146.677 124.156 145.531 124.625C144.396 125.083 143.156 125.312 141.812 125.312H136.312C134.969 125.312 133.724 125.083 132.578 124.625C131.432 124.156 130.443 123.505 129.609 122.672C128.776 121.839 128.12 120.849 127.641 119.703C127.172 118.557 126.938 117.302 126.938 115.938V111.656C126.938 110.302 127.172 109.052 127.641 107.906C128.12 106.75 128.776 105.76 129.609 104.938C130.443 104.104 131.432 103.453 132.578 102.984C133.724 102.516 134.969 102.281 136.312 102.281H141.812C143.156 102.281 144.396 102.516 145.531 102.984C146.677 103.453 147.667 104.104 148.5 104.938C149.333 105.76 149.984 106.75 150.453 107.906C150.922 109.052 151.156 110.302 151.156 111.656V115.938ZM147.094 111.656C147.094 110.854 146.964 110.13 146.703 109.484C146.453 108.828 146.094 108.271 145.625 107.812C145.167 107.344 144.609 106.984 143.953 106.734C143.307 106.474 142.594 106.344 141.812 106.344H136.312C135.521 106.344 134.797 106.474 134.141 106.734C133.495 106.984 132.938 107.344 132.469 107.812C132 108.271 131.635 108.828 131.375 109.484C131.125 110.13 131 110.854 131 111.656V115.938C131 116.74 131.125 117.469 131.375 118.125C131.635 118.771 132 119.328 132.469 119.797C132.938 120.255 133.495 120.615 134.141 120.875C134.797 121.125 135.521 121.25 136.312 121.25H141.781C142.573 121.25 143.292 121.125 143.938 120.875C144.594 120.615 145.156 120.255 145.625 119.797C146.094 119.328 146.453 118.771 146.703 118.125C146.964 117.469 147.094 116.74 147.094 115.938V111.656ZM177.562 110.125C177.562 111.052 177.448 111.88 177.219 112.609C176.99 113.339 176.677 113.984 176.281 114.547C175.896 115.099 175.448 115.573 174.938 115.969C174.427 116.365 173.891 116.693 173.328 116.953C172.776 117.203 172.214 117.385 171.641 117.5C171.078 117.615 170.547 117.672 170.047 117.672L178.531 125H172.25L163.781 117.672H160.859V113.609H170.047C170.557 113.568 171.021 113.464 171.438 113.297C171.865 113.12 172.229 112.885 172.531 112.594C172.844 112.302 173.083 111.953 173.25 111.547C173.417 111.13 173.5 110.656 173.5 110.125V107.562C173.5 107.333 173.469 107.161 173.406 107.047C173.354 106.922 173.281 106.833 173.188 106.781C173.104 106.719 173.01 106.682 172.906 106.672C172.812 106.661 172.724 106.656 172.641 106.656H159.234V125H155.172V104.641C155.172 104.359 155.224 104.094 155.328 103.844C155.432 103.594 155.573 103.375 155.75 103.188C155.938 103 156.156 102.854 156.406 102.75C156.656 102.646 156.927 102.594 157.219 102.594H172.641C173.547 102.594 174.312 102.76 174.938 103.094C175.562 103.417 176.068 103.828 176.453 104.328C176.849 104.818 177.13 105.349 177.297 105.922C177.474 106.495 177.562 107.031 177.562 107.531V110.125Z"
          fill="black"/>
</svg>
